<svg height="512" viewBox="0 0 64 64" width="512" xmlns="http://www.w3.org/2000/svg"><g id="Bat"><path d="m37.636 53.292a12.888 12.888 0 0 1 8.448-3.129h.007a12.921 12.921 0 0 1 9.2 3.81l4.237 4.237a37.156 37.156 0 0 0 -4.4-22.274l-.069-.123-.477.481a13.034 13.034 0 0 1 -18.387 0 1 1 0 0 1 0-1.415l4.34-4.34h-.02a8.981 8.981 0 0 1 -7.052-7.052v-.02l-4.34 4.34a1 1 0 0 1 -.707.293 1 1 0 0 1 -.708-.293 13.035 13.035 0 0 1 0-18.384l.485-.48-.127-.071a37.178 37.178 0 0 0 -22.27-4.4l4.237 4.237a12.918 12.918 0 0 1 3.81 9.2 12.888 12.888 0 0 1 -3.129 8.448 18.944 18.944 0 0 1 4.1 20.73l-1.514 3.613 3.606-1.5a18.945 18.945 0 0 1 20.73 4.092z"/></g></svg>