<svg id="Layer_1" enable-background="new 0 0 512 512" height="512" viewBox="0 0 512 512" width="512" xmlns="http://www.w3.org/2000/svg"><g><path d="m225.724 326.544-45.088-45.088c-14.059-14.059-36.853-14.059-50.912 0l-44.315 44.315c-10.255 6.65-22.21 10.229-34.72 10.229h-2.176c-4.418 0-8 3.582-8 8s3.582 8 8 8h2.176c3.033 0 6.036-.187 9.008-.518l-6.944 6.944c-11.252 11.252-17.574 26.514-17.574 42.426v71.148h71.147c15.913 0 31.174-6.321 42.426-17.574l76.971-76.97c14.059-14.059 14.059-36.853.001-50.912z" fill="#fad241"/><g><path d="m139.179 328c-2.047 0-4.095-.781-5.657-2.343-3.125-3.124-3.125-8.189 0-11.313l13.456-13.456c8.31-8.311 19.359-12.887 31.112-12.887h25.088c4.418 0 8 3.582 8 8s-3.582 8-8 8h-25.088c-7.479 0-14.51 2.913-19.799 8.201l-13.456 13.456c-1.561 1.561-3.608 2.342-5.656 2.342z" fill="#faa037"/></g><g><g><path d="m67.179 200h24v-28c0-6.627-5.373-12-12-12-6.627 0-12 5.373-12 12z" fill="#fad241"/></g><g><path d="m79.179 264c6.627 0 12-5.373 12-12v-28h-24v28c0 6.627 5.373 12 12 12z" fill="#fad241"/></g><g><path d="m67.179 224v-24h-28c-6.627 0-12 5.373-12 12 0 6.627 5.373 12 12 12z" fill="#fad241"/></g><g><path d="m131.179 212c0-6.627-5.373-12-12-12h-28v24h28c6.628 0 12-5.373 12-12z" fill="#fad241"/></g></g><g><g><path d="m411.179 242.667h24v-28c0-6.627-5.373-12-12-12-6.627 0-12 5.373-12 12z" fill="#fad241"/></g><g><path d="m423.179 306.667c6.627 0 12-5.373 12-12v-28h-24v28c0 6.627 5.373 12 12 12z" fill="#fad241"/></g><g><path d="m411.179 266.667v-24h-28c-6.627 0-12 5.373-12 12 0 6.627 5.373 12 12 12z" fill="#fad241"/></g><g><path d="m475.179 254.667c0-6.627-5.373-12-12-12h-28v24h28c6.628 0 12-5.373 12-12z" fill="#fad241"/></g></g><g><g><path d="m283.179 432h24v-28c0-6.627-5.373-12-12-12-6.627 0-12 5.373-12 12z" fill="#fad241"/></g><g><path d="m295.179 496c6.627 0 12-5.373 12-12v-28h-24v28c0 6.627 5.373 12 12 12z" fill="#fad241"/></g><g><path d="m283.179 456v-24h-28c-6.627 0-12 5.373-12 12 0 6.627 5.373 12 12 12z" fill="#fad241"/></g><g><path d="m347.179 444c0-6.627-5.373-12-12-12h-28v24h28c6.628 0 12-5.373 12-12z" fill="#fad241"/></g></g><g><path d="m243.179 280c-4.095 0-8.189-1.562-11.313-4.687-6.249-6.248-6.249-16.379 0-22.627l112-112c6.248-6.249 16.379-6.249 22.627 0 6.249 6.248 6.249 16.379 0 22.627l-112 112c-3.124 3.125-7.219 4.687-11.314 4.687z" fill="#d76e28"/></g><g><path d="m219.179 224 64 64-15.029 15.029c-9.373 9.373-24.569 9.373-33.941 0l-30.059-30.059c-9.373-9.373-9.373-24.569 0-33.941z" fill="#fad241"/></g><g><path d="m200.836 269.657 36.686 36.686c3.124 3.124 3.124 8.19 0 11.314l-4.686 4.686c-3.124 3.124-8.19 3.124-11.314 0l-36.686-36.686c-3.124-3.124-3.124-8.19 0-11.314l4.686-4.686c3.125-3.124 8.19-3.124 11.314 0z" fill="#d73228"/></g><g><path d="m403.179 168h-48c-8.837 0-16-7.164-16-16s7.163-16 16-16h48c8.837 0 16 7.164 16 16s-7.163 16-16 16z" fill="#aa5a28"/></g><g><path d="m403.179 168c-4.095 0-8.189-1.562-11.313-4.687-6.249-6.248-6.249-16.379 0-22.627l64-64c6.248-6.249 16.379-6.249 22.627 0 6.249 6.248 6.249 16.379 0 22.627l-64 64c-3.124 3.125-7.219 4.687-11.314 4.687z" fill="#d76e28"/></g><g><path d="m251.179 256-32 32 15.029 15.029c9.373 9.373 24.569 9.373 33.941 0l15.03-15.029z" fill="#faa037"/></g><path d="m234.416 363.393c.343-.732.569-1.503.678-2.29 3.112-11.954-.005-25.193-9.371-34.559l-22.544-22.544-104.437 104.438c-10.254 6.65-22.209 10.229-34.719 10.229h-2.177c-4.418 0-8 3.582-8 8s3.582 8 8 8h2.177c3.033 0 6.036-.187 9.008-.517l-37.852 37.85h71.147c15.913 0 31.174-6.321 42.426-17.574l38.676-38.676c-.15 2.012-.25 4.035-.25 6.073v2.177c0 4.418 3.582 8 8 8s8-3.582 8-8v-2.177c0-10.061 2.323-19.759 6.684-28.507l15.86-15.86c4.092-4.091 6.984-8.924 8.694-14.063z" fill="#faa037"/></g></svg>