<svg id="Layer_1" enable-background="new 0 0 497 497" height="512" viewBox="0 0 497 497" width="512" xmlns="http://www.w3.org/2000/svg"><g><g><g><g><g fill="#60d173"><path d="m246.134 409.485-73.076-2.481c3.668 11.25 13.145 8.195 16.813 19.446 3.668 11.25-5.81 14.305-2.142 25.555 3.667 11.249 13.145 8.194 16.812 19.443s-5.81 14.304-2.143 25.553l57.715-44.637"/><path d="m423.924 399.565 73.076 2.481c-3.668-11.25-13.145-8.195-16.813-19.446-3.668-11.25 5.81-14.305 2.142-25.555-3.667-11.249-13.145-8.194-16.812-19.443s5.81-14.304 2.143-25.553l-57.715 44.637"/></g><g><ellipse cx="335.029" cy="404.525" fill="#9af59d" rx="92.726" ry="92.198"/><g fill="#d65bf5"><path d="m373.405 358.708c4.935 15.136 18.299 10.828 23.234 25.964 4.934 15.136-8.43 19.443-3.496 34.579 4.935 15.137 18.3 10.829 23.234 25.965.268.821.472 1.605.638 2.366 11.284-21.246 14.262-46.827 6.222-71.488-8.04-24.662-25.545-43.641-47.22-54.264.316.715.614 1.472.883 2.297 4.935 15.137-8.43 19.444-3.495 34.581z"/><path d="m272.06 357.918c4.935 15.137-8.43 19.444-3.495 34.581 4.935 15.136 18.299 10.828 23.234 25.964 4.934 15.136-8.43 19.443-3.496 34.579 4.935 15.137 18.3 10.829 23.234 25.965 2.007 6.158.986 10.523-.599 14.554 15.498 4.161 32.243 4.369 48.708-.152-2.173-12.569 8.869-17.318 4.311-31.298-4.935-15.137-18.3-10.829-23.234-25.965s8.43-19.443 3.496-34.579c-4.935-15.136-18.299-10.828-23.234-25.964-4.935-15.137 8.43-19.444 3.495-34.581-4.559-13.983-16.307-11.384-21.962-22.839-16.003 5.944-29.441 15.882-39.537 28.294 3.665 2.341 7.07 5.28 9.079 11.441z"/></g></g></g><g><g><g fill="#ffcc57"><path d="m56.353 333.476-56.353 46.192c10.203 6.04 15.274-2.488 25.477 3.552s5.133 14.567 15.336 20.607c10.202 6.039 15.272-2.489 25.474 3.55s5.132 14.566 15.334 20.605l13.62-71.487"/><path d="m182.877 209.107 56.353-46.192c-10.203-6.04-15.274 2.488-25.477-3.552s-5.133-14.567-15.336-20.607c-10.202-6.039-15.272 2.489-25.474-3.55s-5.132-14.566-15.334-20.605l-13.62 71.487"/></g><g><ellipse cx="119.615" cy="271.292" fill="#ffecc2" rx="92.488" ry="92.28"/><path d="m166.805 191.927c-21.033-12.45-45.001-15.621-67.134-10.739 9.32 2.067 18.477 5.614 27.134 10.739 43.93 26.004 58.415 82.617 32.353 126.448-13.584 22.846-35.504 37.704-59.599 43.019 37.97 8.421 78.673-7.826 99.599-43.019 26.062-43.831 11.577-100.444-32.353-126.448z" fill="#ffe6ab"/><g><path d="m160.599 354.023c14.361-7.066 27.035-17.921 36.364-32.145-9.958-8.013-147.093-89.182-158.92-94.069-8.04 14.989-11.514 31.292-10.844 47.255 4.296-.652 131.915 74.887 133.4 78.959z" fill="#ff9e17"/></g><g><path d="m166.771 302.766c-1.684 4.233-5.051 11.926-9.808 19.112-4.636 7.068-10.099 13.302-16.182 18.655 11.655 7.297 19.458 12.502 19.818 13.49 14.361-7.066 27.035-17.921 36.364-32.145-2.649-2.132-14.297-9.44-30.192-19.112z" fill="#f79000"/></g></g></g><g><g><path d="m372.138 182.257 66.984 28.781c-8.123 8.626-15.365 1.837-23.488 10.462-8.122 8.626-.88 15.415-9.002 24.04-8.123 8.627-15.366 1.837-23.489 10.464s-.881 15.416-9.004 24.043l-32.961-64.911-125.177-117.346-66.984-28.78c8.123-8.626 15.365-1.837 23.488-10.462 8.122-8.626.88-15.415 9.002-24.04 8.123-8.627 15.366-1.837 23.489-10.464s.881-15.417 9.004-24.044l32.961 64.911z" fill="#7d889e"/></g><g><ellipse cx="294.069" cy="140.024" fill="#ff8180" rx="92.488" ry="92.28"/></g><path d="m357.399 72.77c-23.137-21.69-54.503-29.185-83.33-22.842 15.722 3.459 30.745 11.044 43.33 22.842 37.227 34.897 39.051 93.298 4.075 130.441-13.237 14.057-29.851 23.045-47.404 26.907 30.783 6.772 64.253-2.322 87.404-26.907 34.976-37.143 33.151-95.543-4.075-130.441z" fill="#fe6866"/></g></g></g><g><path d="m166.805 191.927c-28.474-16.855-62.326-16.707-89.722-2.586l134.998 79.733c-.768-30.694-16.858-60.325-45.276-77.147z" fill="#ff9e17"/></g><path d="m126.805 191.927c20.129 11.915 34.063 30.26 40.758 50.853l44.519 26.293c-.769-30.694-16.858-60.325-45.277-77.146-21.03-12.448-44.992-15.612-67.121-10.732 9.315 2.067 18.467 5.61 27.121 10.732z" fill="#f79000"/></g><path d="m321.611 110.639-7.918 26.328 17.2 21.448-27.486.605-15.083 22.986-9.07-25.953-26.522-7.242 21.881-16.646-1.308-27.462 22.592 15.666z" fill="#fff"/></g></svg>