<svg id="Capa_1" enable-background="new 0 0 461.265 461.265" height="512" viewBox="0 0 461.265 461.265" width="512" xmlns="http://www.w3.org/2000/svg"><g><circle cx="366.537" cy="271.918" fill="#f4bb87" r="40.825"/><circle cx="94.722" cy="271.918" fill="#f4bb87" r="40.825"/><path d="m431.177 164.4c.29 1.999.437 4.016.439 6.035-.004 23.793-19.295 43.077-43.088 43.073s-43.077-19.295-43.073-43.088c.002-9.171 2.93-18.102 8.359-25.494-21.852-9.372-31.97-34.684-22.598-56.537 6.452-15.044 20.877-25.128 37.222-26.019-4.207-23.421 11.37-45.818 34.791-50.024 23.421-4.207 45.818 11.37 50.024 34.791 2.591 14.428-2.331 29.184-13.065 39.167 20.451 12.153 27.178 38.584 15.026 59.035-5.399 9.086-13.95 15.869-24.025 19.06h-.012z" fill="#ef5261"/><path d="m394.504 87.21s-24.294 12.2-40.414-21.56c4.554-1.917 9.404-3.034 14.338-3.302-.001 0 4.898 25.301 26.076 24.862z" fill="#da364c"/><path d="m107.446 144.926c14.082 19.181 9.949 46.147-9.232 60.23-4.557 3.346-9.728 5.762-15.219 7.111-23.123 5.66-46.455-8.496-52.116-31.619-.817-3.336-1.231-6.757-1.236-10.191.002-2.02.149-4.037.439-6.035-22.68-7.182-35.242-31.39-28.06-54.07 3.191-10.076 9.975-18.626 19.06-24.025-17.407-16.207-18.38-43.456-2.174-60.863s43.456-18.38 60.863-2.173c10.704 9.966 15.618 24.682 13.05 39.08 23.747 1.322 41.926 21.644 40.604 45.391-.908 16.313-10.97 30.708-25.979 37.164z" fill="#da364c"/><path d="m107.446 144.926c14.082 19.181 9.949 46.147-9.232 60.23-4.557 3.346-9.728 5.762-15.219 7.111-19.256-4.726-32.802-21.982-32.821-41.809.009-2.028.163-4.052.461-6.058-22.68-7.182-35.242-31.39-28.06-54.07 3.191-10.076 9.975-18.626 19.06-24.025-17.422-16.19-18.42-43.439-2.23-60.861 5.729-6.165 13.139-10.516 21.315-12.515 22.069 5.434 36.13 27.068 32.135 49.442 23.747 1.322 41.926 21.644 40.604 45.391-.908 16.314-10.97 30.708-25.979 37.165h-.034z" fill="#ef5261"/><path d="m66.755 87.21s24.294 12.2 40.414-21.56c-4.554-1.917-9.404-3.034-14.338-3.302.001 0-4.898 25.301-26.076 24.862z" fill="#da364c"/><path d="m373.973 190.144v116.102c-.006 72.853-54.652 134.117-127.031 142.415-78.659 9.003-149.723-47.465-158.726-126.124-.619-5.408-.929-10.848-.93-16.291v-116.102c.016-79.156 64.187-143.318 143.343-143.321 79.155.007 143.325 64.166 143.344 143.321z" fill="#f4bb87"/><path d="m373.973 190.144v116.102c-.006 72.853-54.652 134.117-127.031 142.415-72.402-8.269-127.078-69.543-127.082-142.415v-116.102c.01-72.866 54.686-134.129 127.082-142.393 72.371 8.295 127.016 69.548 127.031 142.393z" fill="#fed19a"/><path d="m319.789 333.792c-15.891 49.238-68.688 76.272-117.927 60.381-28.663-9.251-51.13-31.718-60.381-60.381z" fill="#575b6d"/><g fill="#eeefee"><path d="m175.028 333.792h24.243v33.271h-24.243z"/><path d="m204.806 333.792h24.271v33.271h-24.271z"/><path d="m234.713 333.792h23.444v33.271h-23.444z"/><path d="m263.417 333.792h23.551v33.271h-23.551z"/><path d="m169.375 333.792v33.271h-8.949c-8.522-9.681-14.973-21.004-18.956-33.271z"/><path d="m319.789 333.792c-3.983 12.267-10.434 23.59-18.956 33.271h-7.92v-33.271z"/></g><path d="m260.773 211.148c-5.792.021-11.352-2.276-15.44-6.379l-2.177-2.177c-2.518-2.518-2.518-6.6 0-9.118s6.6-2.518 9.118 0l2.177 2.177c3.494 3.487 9.151 3.487 12.645 0l29.812-29.812c8.523-8.527 22.345-8.531 30.872-.008.003.003.005.005.008.008l2.486 2.486c2.32 2.7 2.013 6.77-.687 9.09-2.414 2.074-5.98 2.077-8.397.005l-2.486-2.486c-3.494-3.487-9.151-3.487-12.645 0l-29.812 29.812c-4.093 4.12-9.667 6.425-15.474 6.402z" fill="#575b6d"/><path d="m267.843 274.292-4.64-4.382 20.711-16.633 14.546-11.711 29.3-23.546 3.87 7.115c22.183 40.754-30.049 80.982-63.787 49.157z" fill="#eeefee"/><path d="m308.129 264.955c-1.611 1.521-3.741 2.37-5.957 2.374-2.2-.004-4.315-.854-5.906-2.374l-12.375-11.655 14.546-11.711 10.164 11.345c3.131 3.471 2.921 8.806-.472 12.021z" fill="#575b6d"/><path d="m200.486 211.148c5.792.021 11.352-2.276 15.44-6.379l2.177-2.177c2.518-2.518 2.518-6.6 0-9.118s-6.6-2.518-9.118 0l-2.177 2.177c-3.494 3.487-9.151 3.487-12.645 0l-29.812-29.812c-8.523-8.527-22.345-8.531-30.872-.008-.003.003-.005.005-.008.008l-2.486 2.486c-2.32 2.7-2.012 6.77.688 9.09 2.414 2.074 5.98 2.076 8.396.005l2.486-2.486c3.494-3.487 9.151-3.487 12.645 0l29.812 29.812c4.093 4.12 9.667 6.425 15.474 6.402z" fill="#575b6d"/><path d="m193.416 274.292 4.641-4.382-20.711-16.633-14.546-11.71-29.3-23.546-3.87 7.115c-22.184 40.753 30.048 80.981 63.786 49.156z" fill="#eeefee"/><path d="m153.13 264.955c1.611 1.521 3.741 2.37 5.957 2.374 2.2-.004 4.315-.854 5.906-2.374l12.375-11.655-14.546-11.711-10.164 11.345c-3.131 3.471-2.921 8.806.472 12.021z" fill="#575b6d"/><path d="m141.47 333.792h27.905v10.907h-23.624c-1.655-3.543-3.085-7.186-4.281-10.907z" fill="#dbd8dd"/><path d="m175.028 333.792h24.243v10.907h-24.243z" fill="#dbd8dd"/><path d="m204.806 333.792h24.271v10.907h-24.271z" fill="#dbd8dd"/><path d="m234.713 333.792h23.444v10.907h-23.444z" fill="#dbd8dd"/><path d="m263.417 333.792h23.551v10.907h-23.551z" fill="#dbd8dd"/><path d="m319.789 333.792c-1.205 3.723-2.645 7.365-4.309 10.907h-22.567v-10.907z" fill="#dbd8dd"/><circle cx="230.63" cy="307.304" fill="#ef5261" r="45.781"/><circle cx="248.466" cy="296.561" fill="#eeefee" r="9.692"/></g></svg>