<svg id="icon" height="512" viewBox="0 0 128 128" width="512" xmlns="http://www.w3.org/2000/svg"><path d="m58.676 3.342h37.865l14.228 31.07-11.876 89.845h-42.569l-11.876-89.845z" fill="#e1b378"/><path d="m98.893 125.257h-42.569a1 1 0 0 1 -.991-.869l-11.876-89.846a1 1 0 0 1 .082-.542l14.228-31.075a1 1 0 0 1 .909-.583h37.865a1 1 0 0 1 .909.583l14.228 31.075a1 1 0 0 1 .082.547l-11.876 89.841a1 1 0 0 1 -.991.869zm-41.691-2h40.814l11.724-88.691-13.84-30.224h-36.583l-13.839 30.224z" fill="#2f3a5a"/><path d="m92.708 117.201 10.799-81.7-11.496-25.103h-28.805l-11.496 25.103 10.799 81.7z" fill="#ef5361"/><path d="m61.392 108.742 1.118 8.456h30.2l10.796-81.699-11.49-25.096h-7.056l11.29 24.649-9.75 73.69z" fill="#da2a47"/><path d="m92.708 118.2h-30.2a1 1 0 0 1 -.991-.869l-10.8-81.7a1 1 0 0 1 .082-.547l11.5-25.1a1 1 0 0 1 .909-.583h28.8a1 1 0 0 1 .909.583l11.5 25.1a1 1 0 0 1 .082.547l-10.8 81.7a1 1 0 0 1 -.991.869zm-29.322-2h28.445l10.646-80.545-11.108-24.255h-27.521l-11.109 24.256z" fill="#2f3a5a"/><path d="m63.268 1-37.311 6.452-8.726 33.039 27.012 86.509 41.946-7.253-3.607-90.556z" fill="#e1b378"/><path d="m44.241 128a1 1 0 0 1 -.953-.7l-27.011-86.511a1 1 0 0 1 -.013-.553l8.726-33.036a1 1 0 0 1 .8-.73l37.31-6.455a1 1 0 0 1 1 .42l19.307 28.191a.991.991 0 0 1 .174.525l3.606 90.555a1 1 0 0 1 -.829 1.025l-41.946 7.253a1.01 1.01 0 0 1 -.171.016zm-25.97-87.532 26.664 85.4 40.219-6.955-3.56-89.392-18.787-27.426-36.047 6.233z" fill="#2f3a5a"/><path d="m49.134 118.993-24.561-78.665 7.05-26.695 28.384-4.908 15.605 22.777 3.28 82.345z" fill="#bd8d5a"/><path d="m78.551 105.322.34 8.522-29.759 5.146-24.559-78.664 7.046-26.688 6.953-1.202-6.925 26.213 22.163 70.951z" fill="#aa7c52"/><path d="m49.134 119.993a1 1 0 0 1 -.953-.7l-24.563-78.667a1 1 0 0 1 -.013-.553l7.051-26.7a1 1 0 0 1 .8-.73l28.381-4.904a1 1 0 0 1 1 .42l15.601 22.778a.994.994 0 0 1 .174.526l3.279 82.345a1 1 0 0 1 -.829 1.025l-29.762 5.146a1.01 1.01 0 0 1 -.166.014zm-23.522-79.688 24.216 77.553 28.029-4.847-3.232-81.181-15.08-22.011-27.119 4.69z" fill="#2f3a5a"/><path d="m65.851 36.5-12.22 2.113-1.764-10.2-5.966 1.032 1.764 10.199-12.22 2.114 1.032 5.965 12.22-2.113 3.827 22.131 5.965-1.031-3.827-22.131 12.221-2.113z" fill="#c8cbd2"/><path d="m52.523 68.741a1 1 0 0 1 -.985-.83l-3.657-21.145-11.235 1.942a1 1 0 0 1 -1.155-.815l-1.031-5.965a1 1 0 0 1 .815-1.156l11.234-1.942-1.593-9.214a1 1 0 0 1 .815-1.156l5.969-1.032a1 1 0 0 1 1.155.815l1.594 9.214 11.234-1.942a1 1 0 0 1 1.155.815l1.032 5.965a1 1 0 0 1 -.815 1.156l-11.237 1.943 3.656 21.146a1 1 0 0 1 -.814 1.156l-5.966 1.032a1.018 1.018 0 0 1 -.171.013zm-3.823-24.131a1 1 0 0 1 .984.83l3.657 21.146 3.994-.691-3.658-21.146a1 1 0 0 1 .815-1.156l11.235-1.943-.69-3.995-11.237 1.945a1 1 0 0 1 -1.155-.815l-1.594-9.214-3.994.69 1.593 9.214a1 1 0 0 1 -.815 1.156l-11.235 1.941.691 4 11.234-1.942a1.018 1.018 0 0 1 .175-.02z" fill="#2f3a5a"/></svg>