<svg height="512" viewBox="0 0 58 58" width="512" xmlns="http://www.w3.org/2000/svg"><g id="Page-1" fill="none" fill-rule="evenodd"><g id="039---Halloween-Schedule" fill-rule="nonzero"><path id="Shape" d="m58 14v35l-9 9h-46c-1.65685425 0-3-1.3431458-3-3v-41z" fill="#35495e"/><path id="Shape" d="m14.5 51.98c-.16.01-.33.02-.5.02-4.97 0-9-5.37-9-12s4.03-12 9-12c.17 0 .34.01.5.02-3.23 1.98-3.23 21.98 0 23.96z" fill="#e57e25"/><path id="Shape" d="m41 40c0 6.63-4.03 12-9 12-.17 0-.34-.01-.5-.02 3.23-1.98 3.23-21.98 0-23.96.16-.01.33-.02.5-.02 4.97 0 9 5.37 9 12z" fill="#e57e25"/><path id="Shape" d="m37 40c0 5.38-2.27 10-5.5 11.98-.5748904.3544288-1.198002.6238824-1.85.8-.5374434.1479914-1.0925569.2220065-1.65.22-.4472107.0039782-.8934195-.0429911-1.33-.14 0 .01-.01 0-.01 0-.03-.01-.04-.01-.07-.02-2.1434324 1.5467337-5.0365676 1.5467337-7.18 0-.03.01-.05.01-.08.02-.4365805.0970089-.8827893.1439782-1.33.14-.5574431.0020065-1.1125566-.0720086-1.65-.22-.651998-.1761176-1.2751096-.4455712-1.85-.8-3.23-1.98-5.5-6.6-5.5-11.98s2.27-10 5.5-11.98c.5748904-.3544288 1.198002-.6238824 1.85-.8.5374434-.1479914 1.0925569-.2220065 1.65-.22.4472107-.0039782.8934195.0429911 1.33.14.03.01.05.01.08.02 2.1434324-1.5467337 5.0365676-1.5467337 7.18 0 .03-.01.04-.01.07-.02h.01c.4365805-.0970089.8827893-.1439782 1.33-.14.5574431-.0020065 1.1125566.0720086 1.65.22.651998.1761176 1.2751096.4455712 1.85.8 3.23 1.98 5.5 6.6 5.5 11.98z" fill="#f29c1f"/><g fill="#e57e25"><path id="Shape" d="m19.33 52.86c-.4365805.0970089-.8827893.1439782-1.33.14-.5574431.0020065-1.1125566-.0720086-1.65-.22-.0424449-.0445142-.0825011-.0912464-.12-.14-.22865-.2750945-.2931701-.6512756-.1692563-.9868396.1239138-.3355639.4174362-.5795306.77-.64.3525639-.0604694.7106063.0717451.9392563.3468396.4558183.5627259.9798383 1.0665912 1.56 1.5z"/><path id="Shape" d="m29.77 52.64c-.0374989.0487536-.0775551.0954858-.12.14-.5374434.1479914-1.0925569.2220065-1.65.22-.4472107.0039782-.8934195-.0429911-1.33-.14.5801617-.4334088 1.1041817-.9372741 1.56-1.5.3534622-.4252593.9847407-.4834622 1.41-.13s.4834622.9847407.13 1.41z"/><path id="Shape" d="m29.64 28.77c-.2040826.1700589-.4674438.251926-.7319715.2275369s-.5084803-.1530298-.6780285-.3575369c-.4558183-.5627259-.9798383-1.0665912-1.56-1.5.4365805-.0970089.8827893-.1439782 1.33-.14.5574431-.0020065 1.1125566.0720086 1.65.22.0424449.0445142.0825011.0912464.12.14.3490954.4266046.291212 1.0544167-.13 1.41z"/><path id="Shape" d="m19.33 27.14c-.5801617.4334088-1.1041817.9372741-1.56 1.5-.1695482.2045071-.4135008.3331478-.6780285.3575369s-.5278889-.057478-.7319715-.2275369c-.421212-.3555833-.4790954-.9833954-.13-1.41.0374989-.0487536.0775551-.0954858.12-.14.5374434-.1479914 1.0925569-.2220065 1.65-.22.4472107-.0039782.8934195.0429911 1.33.14z"/></g><path id="Shape" d="m16.2 33.427-1.971 2.726c-.2548789.3315415-.3098807.7752415-.1436693 1.1589821s.5274819.6471386.9436693.6880179h3.942c.4161874-.0408793.7774579-.3042773.9436693-.6880179s.1112096-.8274406-.1436693-1.1589821l-1.971-2.726c-.1799911-.2650724-.4795937-.4237791-.8-.4237791s-.6200089.1587067-.8.4237791z" fill="#d25627"/><path id="Shape" d="m28.2 33.427-1.971 2.726c-.2548789.3315415-.3098807.7752415-.1436693 1.1589821s.5274819.6471386.9436693.6880179h3.942c.4161874-.0408793.7774579-.3042773.9436693-.6880179s.1112096-.8274406-.1436693-1.1589821l-1.971-2.726c-.1799911-.2650724-.4795937-.4237791-.8-.4237791s-.6200089.1587067-.8.4237791z" fill="#d25627"/><path id="Shape" d="m23 40c-.5522847 0-1-.4477153-1-1v-1c0-.5522847.4477153-1 1-1s1 .4477153 1 1v1c0 .5522847-.4477153 1-1 1z" fill="#d25627"/><path id="Shape" d="m25 43.5c0-.2761424.2238576-.5.5-.5h5.42c.3731155-.0251356.7290766.1600121.9227147.4799359.193638.3199238.1925908.7211555-.0027147 1.0400641-1.9618057 2.9349723-5.3130711 4.6333512-8.84 4.48-3.5269289.1533512-6.8781943-1.5450277-8.84-4.48-.1953055-.3189086-.1963527-.7201403-.0027147-1.0400641.1936381-.3199238.5495992-.5050715.9227147-.4799359h5.42c.2761424 0 .5.2238576.5.5v1c0 .2761424.2238576.5.5.5h3c.2761424 0 .5-.2238576.5-.5z" fill="#d25627"/><path id="Shape" d="m23 28c-.5522847 0-1-.4477153-1-1v-1c.0762187-1.8587749.93984-3.5972901 2.375-4.781.4313344-.345178 1.060822-.2753344 1.406.156s.2753344 1.060822-.156 1.406c-.9595134.805285-1.5468644 1.9687821-1.625 3.219v1c0 .5522847-.4477153 1-1 1z" fill="#4fba6f"/><path id="Shape" d="m58 49h-6c-1.6568542 0-3 1.3431458-3 3v6z" fill="#2c3e50"/><path id="Shape" d="m44.191 28.85c-.1415086.1112123-.2123271.2898967-.1854264.4678552.0269007.1779584.1473692.3277274.3154264.3921448.8601837.3005922 1.7850025.3661822 2.679.19 2.5173928-.5111718 4.2378687-2.8467344 3.9797109-5.4024961-.2581577-2.5557616-2.4109454-4.5000855-4.9797109-4.4975039-.5726435-.0022442-1.1412479.0959078-1.68.29-.1680572.0644174-.2885257.2141864-.3154264.3921448-.0269007.1779585.0439178.3566429.1854264.4678552 1.1463516.9498995 1.8097806 2.3612317 1.8097806 3.85s-.663429 2.9001005-1.8097806 3.85z" fill="#f3d55b"/><path id="Shape" d="m52 33c0-.5522847-.4477153-1-1-1s-1 .4477153-1 1c-.5522847 0-1 .4477153-1 1s.4477153 1 1 1c0 .5522847.4477153 1 1 1s1-.4477153 1-1c.5522847 0 1-.4477153 1-1s-.4477153-1-1-1z" fill="#f0c419"/><path id="Shape" d="m39 22c0-.5522847-.4477153-1-1-1s-1 .4477153-1 1c-.5522847 0-1 .4477153-1 1s.4477153 1 1 1c0 .5522847.4477153 1 1 1s1-.4477153 1-1c.5522847 0 1-.4477153 1-1s-.4477153-1-1-1z" fill="#f0c419"/><path id="Shape" d="m58 6v10h-58v-10c0-1.65685425 1.34314575-3 3-3h52c1.6568542 0 3 1.34314575 3 3z" fill="#e64c3c"/><path id="Shape" d="m47 3c1.7799916.69615377 2.9644585 2.39704811 3 4.308-.1669773 2.63882398-2.3558984 4.6936142-5 4.6936142s-4.8330227-2.05479022-5-4.6936142c.0355415-1.91095189 1.2200084-3.61184623 3-4.308z" fill="#c03a2b"/><path id="Shape" d="m15 3c1.7799916.69615377 2.9644585 2.39704811 3 4.308-.0886126 2.67476119-2.3250095 4.773396-5 4.692-2.6749905.081396-4.91138737-2.01723881-5-4.692.03554154-1.91095189 1.22000835-3.61184623 3-4.308z" fill="#c03a2b"/><rect id="Rectangle-path" fill="#95a5a5" height="8" rx="2" width="4" x="43"/><rect id="Rectangle-path" fill="#95a5a5" height="8" rx="2" width="4" x="11"/></g></g></svg>