<svg id="_x33_0" enable-background="new 0 0 64 64" height="512" viewBox="0 0 64 64" width="512" xmlns="http://www.w3.org/2000/svg"><g><g><path d="m55.8 2c-1.05 0-1.95.74-2.15 1.77l-.48 2.36c-.07.37-.53.51-.8.24l-.96-.96c-.26-.26-.62-.41-1-.41-.78 0-1.41.63-1.41 1.41 0 1.04.31 2.05.88 2.91l1.12 1.68-1 8-4.15 8.29v.01c-.81.24-1.56.63-2.23 1.15-.59-.29-1.25-.45-1.92-.45h-7.7-.3c3.03 0 5.58-2.25 5.96-5.26l.34-2.74 1.1-1.1c.93-.93 1.66-2.02 2.15-3.21s.75-2.47.75-3.79c0-5.47-4.43-9.9-9.9-9.9h-4.2c-2.74 0-5.21 1.11-7 2.9s-2.9 4.26-2.9 7c0 2.63 1.04 5.14 2.9 7l1.1 1.1.34 2.74c.38 3.01 2.93 5.26 5.96 5.26h-.3-7.7c-.85 0-1.68.25-2.38.72-.24.16-.46.34-.66.54l-2.67-1.06c-.39-.13-.8-.2-1.21-.2-1.46 0-2.79.82-3.44 2.13l-.23.45c-.47.93-.71 1.96-.71 3.01 0 .9.36 1.77 1 2.41l-2.8 5.6c-.13.26-.2.55-.2.85 0 .7.39 1.32.97 1.65l-1.97 7.9c-1.28 1.28-2 3.02-2 4.83v2.97c0 1.22.98 2.2 2.2 2.2 1.05 0 1.95-.74 2.15-1.77l.48-2.36c.07-.37.53-.51.8-.24l.96.96c.26.26.62.41 1 .41.78 0 1.41-.63 1.41-1.41 0-1.04-.31-2.05-.88-2.91l-1.12-1.68 1-8 4-8c0 1.66 1.34 3 3 3h-2c-.55 0-1 .45-1 1 0 1.66 1.34 3 3 3h-2c-.55 0-1 .45-1 1 0 1.66 1.34 3 3 3h7c.55 0 1.05-.22 1.41-.59.37-.36.59-.86.59-1.41 0-1.1-.9-2-2-2 .55 0 1.05-.22 1.41-.59.37-.36.59-.86.59-1.41 0-1.1-.9-2-2-2 .55 0 1.05-.22 1.41-.59.37-.36.59-.86.59-1.41 0-1.1-.9-2-2-2 .55 0 1.05-.22 1.41-.59.37-.36.59-.86.59-1.41v4 2 2 4 4 6l-.26-.51c-1.07-2.14-3.25-3.49-5.64-3.49-1.36 0-2.69.44-3.78 1.26-.73.55-1.31 1.25-1.71 2.05-.39.79-.61 1.67-.61 2.59 0 1.38.32 2.74.94 3.98l.06.12h4 18 4l.06-.12c.62-1.24.94-2.6.94-3.98 0-.92-.22-1.8-.61-2.59-.4-.8-.98-1.5-1.71-2.05-1.09-.82-2.42-1.26-3.78-1.26-1.2 0-2.34.34-3.32.94-.97.61-1.78 1.48-2.32 2.55l-.26.51v-6-4-4-2-2-4c0 .55.22 1.05.59 1.41.36.37.86.59 1.41.59-1.1 0-2 .9-2 2 0 .55.22 1.05.59 1.41.36.37.86.59 1.41.59-1.1 0-2 .9-2 2 0 .55.22 1.05.59 1.41.36.37.86.59 1.41.59-1.1 0-2 .9-2 2 0 .55.22 1.05.59 1.41.36.37.86.59 1.41.59h7c1.66 0 3-1.34 3-3 0-.55-.45-1-1-1h-2c1.66 0 3-1.34 3-3 0-.55-.45-1-1-1h-2c1.66 0 3-1.34 3-3 0-.55-.45-1-1-1h-2c.86 0 1.63-.36 2.18-.94l2.23.74c.39.13.8.2 1.21.2 1.46 0 2.79-.82 3.44-2.13l.23-.45c.47-.93.71-1.96.71-3.01 0-.9-.36-1.77-1-2.41l2.8-5.6c.13-.26.2-.55.2-.85 0-.7-.39-1.32-.97-1.65l1.97-7.9c1.28-1.28 2-3.02 2-4.83v-2.97c0-1.22-.98-2.2-2.2-2.2z" fill="#e6e9ed"/><g><circle cx="27" cy="11" fill="#656d78" r="3"/></g><g><circle cx="37" cy="11" fill="#656d78" r="3"/></g></g><g><g><path d="m27 15c-2.206 0-4-1.794-4-4s1.794-4 4-4 4 1.794 4 4-1.794 4-4 4zm0-6c-1.103 0-2 .897-2 2s.897 2 2 2 2-.897 2-2-.897-2-2-2z"/></g><g><path d="m37 15c-2.206 0-4-1.794-4-4s1.794-4 4-4 4 1.794 4 4-1.794 4-4 4zm0-6c-1.103 0-2 .897-2 2s.897 2 2 2 2-.897 2-2-.897-2-2-2z"/></g><g><path d="m31 15h2v2h-2z"/></g><g><path d="m27 21h10v2h-10z"/></g><g><path d="m33 19h2v6h-2z"/></g><g><path d="m29 19h2v6h-2z"/></g><g><path d="m33.703 29v-2c2.516 0 4.649-1.883 4.962-4.38l.385-3.084 1.344-1.343c1.68-1.682 2.606-3.917 2.606-6.294 0-4.907-3.992-8.899-8.899-8.899h-4.201c-4.908 0-8.9 3.992-8.9 8.899 0 2.377.926 4.612 2.606 6.293l1.344 1.343.385 3.084c.313 2.497 2.446 4.38 4.962 4.38v2c-3.522 0-6.509-2.636-6.946-6.132l-.301-2.404-.857-.858c-2.059-2.057-3.193-4.794-3.193-7.706 0-6.009 4.89-10.899 10.899-10.899h4.201c6.01 0 10.9 4.89 10.9 10.899 0 2.912-1.134 5.648-3.192 7.707l-.857.858-.301 2.404c-.438 3.496-3.424 6.132-6.947 6.132z"/></g><g><path d="m29 28h2v28h-2z"/></g><g><path d="m33 28h2v28h-2z"/></g><g><path d="m22.105 62.448-.251-.501c-.559-1.122-.854-2.374-.854-3.623 0-1.833 1.491-3.324 3.324-3.324 1.434 0 2.701.914 3.154 2.273l.471 1.41-1.898.633-.47-1.41c-.18-.542-.685-.906-1.257-.906-.73 0-1.324.594-1.324 1.324 0 .94.223 1.884.644 2.729l.251.499z"/></g><g><path d="m45.62 63h-27.24l-.335-.676c-.684-1.365-1.045-2.897-1.045-4.427 0-2.129 1.017-4.161 2.719-5.437 1.256-.94 2.812-1.46 4.384-1.46 2.785 0 5.289 1.548 6.535 4.039l.81 1.619c.211.422.895.423 1.105-.001l.81-1.618c1.245-2.491 3.749-4.039 6.534-4.039 1.571 0 3.128.52 4.385 1.462 1.701 1.274 2.718 3.307 2.718 5.435 0 1.529-.361 3.062-1.046 4.43zm-25.985-2h24.73c.417-.979.635-2.042.635-3.103 0-1.502-.717-2.936-1.918-3.835-.913-.685-2.044-1.062-3.185-1.062-2.022 0-3.842 1.124-4.746 2.934l-.81 1.619c-.446.892-1.344 1.447-2.341 1.447s-1.895-.555-2.342-1.446l-.81-1.62c-.904-1.81-2.723-2.934-4.745-2.934-1.141 0-2.271.377-3.184 1.062-1.202.9-1.919 2.334-1.919 3.835 0 1.062.219 2.125.635 3.103z"/></g><g><path d="m41.895 62.448-1.789-.896.251-.501c.42-.843.643-1.786.643-2.727 0-.73-.594-1.324-1.324-1.324-.571 0-1.077.364-1.258.906l-.469 1.41-1.898-.633.47-1.41c.454-1.359 1.721-2.273 3.155-2.273 1.833 0 3.324 1.491 3.324 3.324 0 1.249-.295 2.501-.854 3.621z"/></g><g><path d="m30 49h4v2h-4z"/></g><g><path d="m28 37v-2c.552 0 1-.448 1-1s-.448-1-1-1h-9c0 1.103.897 2 2 2v2c-2.206 0-4-1.794-4-4 0-1.103.897-2 2-2h9c1.654 0 3 1.346 3 3s-1.346 3-3 3z"/></g><g><path d="m28 41v-2c.552 0 1-.448 1-1s-.448-1-1-1h-9c0 1.103.897 2 2 2v2c-2.206 0-4-1.794-4-4 0-1.103.897-2 2-2h9c1.654 0 3 1.346 3 3s-1.346 3-3 3z"/></g><g><path d="m28 45v-2c.552 0 1-.448 1-1s-.448-1-1-1h-9c0 1.103.897 2 2 2v2c-2.206 0-4-1.794-4-4 0-1.103.897-2 2-2h9c1.654 0 3 1.346 3 3s-1.346 3-3 3z"/></g><g><path d="m28 49h-7c-2.206 0-4-1.794-4-4 0-1.103.897-2 2-2h9c1.654 0 3 1.346 3 3s-1.346 3-3 3zm-9-4c0 1.103.897 2 2 2h7c.552 0 1-.448 1-1s-.448-1-1-1z"/></g><g><path d="m43 37v-2c1.103 0 2-.897 2-2h-9c-.552 0-1 .448-1 1s.448 1 1 1v2c-1.654 0-3-1.346-3-3s1.346-3 3-3h9c1.103 0 2 .897 2 2 0 2.206-1.794 4-4 4z"/></g><g><path d="m43 41v-2c1.103 0 2-.897 2-2h-9c-.552 0-1 .448-1 1s.448 1 1 1v2c-1.654 0-3-1.346-3-3s1.346-3 3-3h9c1.103 0 2 .897 2 2 0 2.206-1.794 4-4 4z"/></g><g><path d="m43 45v-2c1.103 0 2-.897 2-2h-9c-.552 0-1 .448-1 1s.448 1 1 1v2c-1.654 0-3-1.346-3-3s1.346-3 3-3h9c1.103 0 2 .897 2 2 0 2.206-1.794 4-4 4z"/></g><g><path d="m43 49h-7c-1.654 0-3-1.346-3-3s1.346-3 3-3h9c1.103 0 2 .897 2 2 0 2.206-1.794 4-4 4zm-7-4c-.552 0-1 .448-1 1s.448 1 1 1h7c1.103 0 2-.897 2-2z"/></g><g><path d="m47 33h-2v-.697c0-1.107-.55-2.134-1.471-2.748-.545-.363-1.177-.555-1.832-.555h-19.394c-.654 0-1.287.192-1.832.555-.921.613-1.471 1.641-1.471 2.748v.697h-2v-.697c0-1.777.883-3.427 2.361-4.412.874-.583 1.892-.891 2.942-.891h19.395c1.05 0 2.067.308 2.941.891 1.478.985 2.361 2.634 2.361 4.412z"/></g><g><path d="m30 45h4v2h-4z"/></g><g><path d="m30 39h4v2h-4z"/></g><g><path d="m30 33h4v2h-4z"/></g><g><path d="m18 38h-3.586c-1.179 0-2.287-.459-3.121-1.293s-1.293-1.942-1.293-3.121c0-1.191.281-2.385.814-3.451l.229-.457c.826-1.652 2.486-2.678 4.333-2.678.523 0 1.039.083 1.533.249l2.721 1.082-.74 1.858-2.668-1.063c-.237-.077-.539-.126-.846-.126-1.084 0-2.059.603-2.544 1.573l-.229.457c-.394.789-.603 1.673-.603 2.556 0 .645.251 1.251.707 1.707s1.063.707 1.707.707h3.586z"/></g><g><path d="m14.553 46.13-4.227-.845c-1.347-.269-2.326-1.463-2.326-2.838 0-.447.105-.894.306-1.295l2.8-5.6 1.789.895-2.8 5.6c-.062.124-.095.263-.095.4 0 .425.302.794.719.877l2.729.546 3.658-7.317 1.789.895z"/></g><g><path d="m10.447 55c-1.274 0-2.42-.708-2.989-1.847l-.518-1.037 2.064-8.256 1.939.484-1.883 7.54.188.376c.32.641 1.154.921 1.801.599l1.026-.514.934-7.469 1.984.248-1.066 8.531-1.984.992c-.464.231-.981.353-1.496.353z"/></g><g><path d="m8.198 63c-1.763 0-3.198-1.435-3.198-3.198v-2.974c0-2.061.836-4.078 2.293-5.535l1.414 1.414c-1.085 1.085-1.707 2.587-1.707 4.121v2.974c0 .661.537 1.198 1.198 1.198.568 0 1.063-.405 1.175-.963l.472-2.361c.108-.536.499-.966 1.021-1.123.525-.159 1.086-.016 1.471.369l.957.957c.237.238.706.045.706-.293 0-.84-.246-1.652-.712-2.351l-1.12-1.681 1.664-1.109 1.12 1.681c.686 1.027 1.048 2.224 1.048 3.46 0 1.331-1.083 2.414-2.414 2.414-.636 0-1.258-.258-1.707-.707l-.265-.265-.28 1.401c-.299 1.49-1.617 2.571-3.136 2.571z"/></g><g><path d="m48.624 37c-.523 0-1.039-.084-1.533-.249l-2.227-.742.633-1.896 2.228.742c.29.096.592.145.899.145 1.084 0 2.059-.603 2.544-1.572l.229-.457c.394-.79.603-1.674.603-2.557 0-.645-.251-1.251-.707-1.707s-1.063-.707-1.707-.707h-1.758c-1.297 0-2.573.44-3.593 1.24l-1.234-1.574c1.371-1.075 3.085-1.666 4.827-1.666h1.758c1.179 0 2.287.459 3.121 1.292s1.293 1.942 1.293 3.122c0 1.191-.281 2.385-.814 3.451l-.229.457c-.826 1.652-2.487 2.678-4.333 2.678z"/></g><g><path d="m52.895 28.447-1.789-.895 2.8-5.6c.063-.124.095-.262.095-.4 0-.425-.303-.793-.719-.877l-2.729-.545-3.804 7.609-1.789-.895 4.487-8.975 4.227.845c1.347.271 2.326 1.464 2.326 2.839 0 .447-.105.896-.306 1.295z"/></g><g><path d="m54.995 20.14-1.939-.485 1.885-7.539-.188-.375c-.321-.642-1.156-.922-1.8-.6l-1.027.514-.934 7.469-1.984-.248 1.066-8.531 1.984-.992c.463-.231.979-.353 1.495-.353 1.274 0 2.42.708 2.989 1.848l.518 1.036z"/></g><g><path d="m56.707 12.707-1.414-1.414c1.101-1.101 1.707-2.565 1.707-4.122v-2.973c0-.66-.537-1.198-1.198-1.198-.568 0-1.063.405-1.175.964l-.472 2.36c-.108.537-.5.967-1.022 1.124-.524.158-1.086.015-1.47-.37l-.956-.957c-.239-.238-.707-.045-.707.293 0 .84.246 1.652.712 2.35l1.12 1.681-1.664 1.109-1.12-1.681c-.686-1.026-1.048-2.223-1.048-3.459 0-1.331 1.083-2.414 2.414-2.414.637 0 1.259.258 1.708.708l.264.264.28-1.4c.299-1.491 1.617-2.572 3.136-2.572 1.763 0 3.198 1.435 3.198 3.198v2.973c0 2.091-.814 4.057-2.293 5.536z"/></g></g></g></svg>