<svg xmlns="http://www.w3.org/2000/svg" height="512pt" version="1.1" viewBox="-2 0 512 512.00101" width="512pt">
<g id="surface1">
<path d="M 299.550781 394.972656 L 209.359375 394.972656 L 173.035156 463.488281 L 209.359375 512 L 299.550781 512 L 335.875 453.488281 Z M 299.550781 394.972656 " style=" stroke:none;fill-rule:nonzero;fill:rgb(93.72549%,92.941176%,93.333333%);fill-opacity:1;" />
<path d="M 30.042969 219.527344 C 30.042969 160.738281 53.488281 105.507812 96.058594 64.015625 C 138.410156 22.734375 194.664062 0 254.457031 0 C 314.25 0 370.5 22.734375 412.855469 64.015625 C 455.425781 105.507812 478.871094 160.738281 478.871094 219.527344 Z M 30.042969 219.527344 " style=" stroke:none;fill-rule:nonzero;fill:rgb(22.745098%,28.235294%,29.019608%);fill-opacity:1;" />
<path d="M 137.265625 64.015625 C 174.714844 27.511719 223.035156 5.527344 275.058594 0.921875 C 268.25 0.316406 261.378906 0 254.457031 0 C 194.664062 0 138.410156 22.734375 96.058594 64.015625 C 53.488281 105.507812 30.042969 160.738281 30.042969 219.527344 L 71.25 219.527344 C 71.25 160.738281 94.695312 105.507812 137.265625 64.015625 Z M 137.265625 64.015625 " style=" stroke:none;fill-rule:nonzero;fill:rgb(19.607843%,24.313725%,25.098039%);fill-opacity:1;" />
<path d="M 505.636719 276.449219 L 475.390625 256.886719 L 33.519531 256.886719 L 3.277344 276.449219 C 0.164062 278.464844 -0.898438 282.507812 0.816406 285.792969 C 11.6875 306.625 54.609375 377.898438 151.554688 420.457031 L 357.359375 420.457031 C 454.304688 377.898438 497.226562 306.625 508.097656 285.792969 C 509.808594 282.507812 508.746094 278.464844 505.636719 276.449219 Z M 505.636719 276.449219 " style=" stroke:none;fill-rule:nonzero;fill:rgb(100%,40%,40.784314%);fill-opacity:1;" />
<path d="M 264.644531 406.035156 L 172.160156 406.035156 C 75.214844 363.472656 32.292969 292.199219 21.421875 271.371094 C 20.292969 269.207031 20.375 266.722656 21.441406 264.699219 L 3.277344 276.449219 C 0.164062 278.464844 -0.898438 282.507812 0.816406 285.792969 C 11.6875 306.625 54.609375 377.894531 151.554688 420.457031 L 244.039062 420.457031 Z M 264.644531 406.035156 " style=" stroke:none;fill-rule:nonzero;fill:rgb(100%,30.196078%,30.980392%);fill-opacity:1;" />
<path d="M 209.359375 394.972656 L 209.359375 512 L 118.34375 512 C 118.34375 424.050781 184.683594 394.972656 184.683594 394.972656 Z M 209.359375 394.972656 " style=" stroke:none;fill-rule:nonzero;fill:rgb(22.745098%,28.235294%,29.019608%);fill-opacity:1;" />
<path d="M 206.316406 394.972656 L 184.683594 394.972656 C 184.683594 394.972656 118.339844 424.050781 118.339844 512 L 139.976562 512 C 139.976562 424.050781 206.316406 394.972656 206.316406 394.972656 Z M 206.316406 394.972656 " style=" stroke:none;fill-rule:nonzero;fill:rgb(19.607843%,24.313725%,25.098039%);fill-opacity:1;" />
<path d="M 390.570312 512 L 299.550781 512 L 299.550781 394.972656 L 324.230469 394.972656 C 324.230469 394.972656 390.570312 424.050781 390.570312 512 Z M 390.570312 512 " style=" stroke:none;fill-rule:nonzero;fill:rgb(22.745098%,28.235294%,29.019608%);fill-opacity:1;" />
<path d="M 261.316406 453.488281 C 261.316406 457.277344 258.246094 460.347656 254.457031 460.347656 C 250.667969 460.347656 247.597656 457.277344 247.597656 453.488281 C 247.597656 449.699219 250.667969 446.625 254.457031 446.625 C 258.246094 446.625 261.316406 449.699219 261.316406 453.488281 Z M 261.316406 453.488281 " style=" stroke:none;fill-rule:nonzero;fill:rgb(19.607843%,24.313725%,25.098039%);fill-opacity:1;" />
<path d="M 261.316406 484.898438 C 261.316406 488.6875 258.246094 491.757812 254.457031 491.757812 C 250.667969 491.757812 247.597656 488.6875 247.597656 484.898438 C 247.597656 481.109375 250.667969 478.039062 254.457031 478.039062 C 258.246094 478.039062 261.316406 481.109375 261.316406 484.898438 Z M 261.316406 484.898438 " style=" stroke:none;fill-rule:nonzero;fill:rgb(19.607843%,24.313725%,25.098039%);fill-opacity:1;" />
<path d="M 337.335938 512 L 337.335938 473.261719 C 337.335938 468.992188 340.792969 465.535156 345.0625 465.535156 C 349.328125 465.535156 352.789062 468.992188 352.789062 473.261719 L 352.789062 512 Z M 337.335938 512 " style=" stroke:none;fill-rule:nonzero;fill:rgb(19.607843%,24.313725%,25.098039%);fill-opacity:1;" />
<path d="M 156.125 512 L 156.125 473.261719 C 156.125 468.992188 159.585938 465.535156 163.851562 465.535156 C 168.117188 465.535156 171.578125 468.992188 171.578125 473.261719 L 171.578125 512 Z M 156.125 512 " style=" stroke:none;fill-rule:nonzero;fill:rgb(19.607843%,24.313725%,25.098039%);fill-opacity:1;" />
<path d="M 490.039062 224.765625 C 490.039062 248.28125 470.976562 267.34375 447.460938 267.34375 C 423.945312 267.34375 404.878906 248.28125 404.878906 224.765625 C 404.878906 201.246094 423.945312 182.183594 447.460938 182.183594 C 470.976562 182.183594 490.039062 201.246094 490.039062 224.765625 Z M 490.039062 224.765625 " style=" stroke:none;fill-rule:nonzero;fill:rgb(99.607843%,80.784314%,74.901961%);fill-opacity:1;" />
<path d="M 254.457031 90.742188 C 164.734375 44.324219 62.996094 110.695312 61.488281 222.261719 C 62.992188 324.894531 148.800781 407.644531 254.457031 407.644531 C 360.113281 407.644531 445.921875 324.894531 447.425781 222.261719 C 445.917969 110.695312 344.179688 44.324219 254.457031 90.742188 Z M 254.457031 90.742188 " style=" stroke:none;fill-rule:nonzero;fill:rgb(99.607843%,88.235294%,84.705882%);fill-opacity:1;" />
<path d="M 92.394531 222.261719 C 93.480469 141.757812 146.757812 84.796875 210.050781 76.75 C 145.5625 68.640625 84.28125 112.015625 66.578125 182.550781 C 65.011719 182.316406 63.320312 182.183594 61.453125 182.183594 C 37.9375 182.183594 18.875 201.246094 18.875 224.761719 C 18.875 248.277344 37.9375 267.34375 61.453125 267.34375 C 63.746094 267.34375 65.792969 267.15625 67.632812 266.808594 C 89.144531 347.8125 164.621094 407.644531 254.457031 407.644531 C 259.660156 407.644531 264.8125 407.4375 269.910156 407.042969 C 171.464844 399.441406 93.824219 319.839844 92.394531 222.261719 Z M 92.394531 222.261719 " style=" stroke:none;fill-rule:nonzero;fill:rgb(99.607843%,80.784314%,74.901961%);fill-opacity:1;" />
<path d="M 348.304688 233.59375 C 344.035156 233.59375 340.578125 230.132812 340.578125 225.867188 L 340.578125 207.621094 C 340.578125 203.351562 344.035156 199.894531 348.304688 199.894531 C 352.570312 199.894531 356.03125 203.351562 356.03125 207.621094 L 356.03125 225.867188 C 356.03125 230.132812 352.570312 233.59375 348.304688 233.59375 Z M 348.304688 233.59375 " style=" stroke:none;fill-rule:nonzero;fill:rgb(22.745098%,28.235294%,29.019608%);fill-opacity:1;" />
<path d="M 360.730469 260.414062 L 335.878906 260.414062 C 331.609375 260.414062 328.152344 256.953125 328.152344 252.6875 C 328.152344 248.421875 331.609375 244.960938 335.878906 244.960938 L 360.730469 244.960938 C 364.996094 244.960938 368.457031 248.421875 368.457031 252.6875 C 368.457031 256.953125 364.996094 260.414062 360.730469 260.414062 Z M 360.730469 260.414062 " style=" stroke:none;fill-rule:nonzero;fill:rgb(97.647059%,50.196078%,51.764706%);fill-opacity:1;" />
<path d="M 160.609375 233.59375 C 156.34375 233.59375 152.882812 230.132812 152.882812 225.867188 L 152.882812 207.621094 C 152.882812 203.351562 156.34375 199.894531 160.609375 199.894531 C 164.875 199.894531 168.335938 203.351562 168.335938 207.621094 L 168.335938 225.867188 C 168.335938 230.132812 164.875 233.59375 160.609375 233.59375 Z M 160.609375 233.59375 " style=" stroke:none;fill-rule:nonzero;fill:rgb(22.745098%,28.235294%,29.019608%);fill-opacity:1;" />
<path d="M 173.035156 260.414062 L 148.183594 260.414062 C 143.914062 260.414062 140.457031 256.953125 140.457031 252.6875 C 140.457031 248.421875 143.914062 244.960938 148.183594 244.960938 L 173.035156 244.960938 C 177.304688 244.960938 180.761719 248.421875 180.761719 252.6875 C 180.761719 256.953125 177.304688 260.414062 173.035156 260.414062 Z M 173.035156 260.414062 " style=" stroke:none;fill-rule:nonzero;fill:rgb(97.647059%,50.196078%,51.764706%);fill-opacity:1;" />
<path d="M 254.457031 259.382812 C 245.683594 259.382812 237.445312 255.714844 231.855469 249.316406 C 229.046875 246.101562 229.375 241.222656 232.585938 238.414062 C 235.796875 235.605469 240.679688 235.933594 243.488281 239.144531 C 246.148438 242.183594 250.144531 243.929688 254.457031 243.929688 C 258.769531 243.929688 262.765625 242.183594 265.421875 239.144531 C 268.230469 235.929688 273.113281 235.601562 276.324219 238.410156 C 279.539062 241.21875 279.867188 246.101562 277.058594 249.3125 C 271.464844 255.714844 263.226562 259.382812 254.457031 259.382812 Z M 254.457031 259.382812 " style=" stroke:none;fill-rule:nonzero;fill:rgb(22.745098%,28.235294%,29.019608%);fill-opacity:1;" />
<path d="M 273.804688 421.070312 C 273.804688 421.070312 325.304688 465.234375 325.304688 407.644531 C 325.304688 350.058594 273.804688 394.222656 273.804688 394.222656 Z M 273.804688 421.070312 " style=" stroke:none;fill-rule:nonzero;fill:rgb(100%,30.196078%,30.980392%);fill-opacity:1;" />
<path d="M 235.105469 421.070312 C 235.105469 421.070312 183.605469 465.234375 183.605469 407.644531 C 183.605469 350.058594 235.105469 394.222656 235.105469 394.222656 Z M 235.105469 421.070312 " style=" stroke:none;fill-rule:nonzero;fill:rgb(100%,30.196078%,30.980392%);fill-opacity:1;" />
<path d="M 261.085938 389.148438 L 247.824219 389.148438 C 237.609375 389.148438 229.328125 397.429688 229.328125 407.644531 C 229.328125 417.863281 237.609375 426.144531 247.824219 426.144531 L 261.085938 426.144531 C 271.304688 426.144531 279.585938 417.863281 279.585938 407.644531 C 279.585938 397.429688 271.304688 389.148438 261.085938 389.148438 Z M 261.085938 389.148438 " style=" stroke:none;fill-rule:nonzero;fill:rgb(100%,40%,40.784314%);fill-opacity:1;" />
</g>
</svg>